# xmcd CD database file
#
# Track frame offsets:
#	150
#	22561
#	39461
#	55344
#	75035
#	97854
#	106788
#	135955
#	158385
#	179634
#	198893
#	218234
#	240566
#	276082
#	300196
#
# Disc length: 4336 seconds
#
# Revision: 6
# Processed by: cddbd v1.5.2PL0 Copyright (c) Steve Scherf et al.
# Submitted via: CDex 1.51
#
DISCID=a010ee0f
DTITLE=Diverse - Verve Today 2009
DYEAR=2009
DGENRE=Jazz
TTITLE0=Melody Gardot - Who Will Comfort Me?
TTITLE1=Teddy Thompson - Can't Sing Straight
TTITLE2=Sophie Hunger - Shape
TTITLE3=Brian Blade - Mercy Angel
TTITLE4=Diana Krall - Walk on By
TTITLE5=Stefano Bollani - Segura ele
TTITLE6=Jazzanova - Let Me Show Ya
TTITLE7=Labelle - Truth'll Set You Free
TTITLE8=John Scofield - Never Turn Back
TTITLE9=Kristin Asbjørnsen - Afloat
TTITLE10=Ketil Bjørnstad - Lucian
TTITLE11=Maria João and Mário Laginha - I've Grown Accustomed to His Face
TTITLE12=Sonny Rollins - Tenor Madness
TTITLE13=Bugge Wesseltoft - Hands
TTITLE14=Nils Petter Molvær - Friction
EXTD=YEAR: 2009
EXTT0=
EXTT1=
EXTT2=
EXTT3=
EXTT4=
EXTT5=
EXTT6=
EXTT7=
EXTT8=
EXTT9=
EXTT10=
EXTT11=
EXTT12=
EXTT13=
EXTT14=
PLAYORDER=
